<?xml version="1.0" encoding="utf-8"?>
<!-- Generator: Adobe Illustrator 19.2.1, SVG Export Plug-In . SVG Version: 6.00 Build 0)  -->
<svg version="1.1" id="Layer_2" xmlns="http://www.w3.org/2000/svg" xmlns:xlink="http://www.w3.org/1999/xlink" x="0px" y="0px"
	 viewBox="0 0 80.3 80.3" style="enable-background:new 0 0 80.3 80.3;" xml:space="preserve">
<style type="text/css">
	.st0{fill:#EB6A5C;}
	.st1{fill:#552F2F;}
	.st2{fill:#2384AB;}
	.st3{fill:#FFFFFF;}
	.st4{fill:#0C2C48;}
	.st5{fill:#F6A09C;}
	.st6{fill:#61C3AF;}
	.st7{fill:#2F4555;}
	.st8{fill:#55AB99;}
	.st9{fill:#ED6B5A;}
	.st10{fill:#2484AD;}
	.st11{fill:#FCA886;}
	.st12{fill:#F1CC4B;}
	.st13{fill:#6EB9E0;}
	.st14{fill:#50646F;}
	.st15{fill:#EDC84A;}
	.st16{fill:#E7543A;}
	.st17{fill:#F38D80;}
	.st18{fill:#F2F2F2;}
	.st19{fill:#81CAFF;}
	.st20{clip-path:url(#SVGID_4_);fill:#55AB99;}
	.st21{fill:#BABFC5;}
	.st22{fill:#BBC2C7;}
</style>
<g>
	<circle class="st10" cx="40.2" cy="40.2" r="40.2"/>
	<g>
		<rect x="32.7" y="51.2" class="st11" width="15" height="9.9"/>
		<g>
			<path class="st11" d="M54.7,41.3c0,8.3-6.5,15-14.5,15l0,0c-8,0-14.5-6.7-14.5-15v-8.6c0-8.3,6.5-15,14.5-15l0,0
				c8,0,14.5,6.7,14.5,15V41.3z"/>
		</g>
		<g>
			<g>
				<g>
					<path class="st7" d="M25.8,43.8c0,0.8-0.7,1.5-1.5,1.5h-3.2c-0.8,0-1.5-0.7-1.5-1.5V32.7c0-0.8,0.7-1.5,1.5-1.5h3.2
						c0.8,0,1.5,0.7,1.5,1.5V43.8z"/>
					<path class="st7" d="M21.7,40.8c0,0.8-0.7,1.5-1.5,1.5h-0.9c-0.8,0-1.5-0.7-1.5-1.5v-5.1c0-0.8,0.7-1.5,1.5-1.5h0.9
						c0.8,0,1.5,0.7,1.5,1.5V40.8z"/>
				</g>
				<g>
					<path class="st7" d="M54.6,43.8c0,0.8,0.7,1.5,1.5,1.5h3.2c0.8,0,1.5-0.7,1.5-1.5V32.7c0-0.8-0.7-1.5-1.5-1.5H56
						c-0.8,0-1.5,0.7-1.5,1.5V43.8z"/>
					<path class="st7" d="M58.6,40.8c0,0.8,0.7,1.5,1.5,1.5H61c0.8,0,1.5-0.7,1.5-1.5v-5.1c0-0.8-0.7-1.5-1.5-1.5h-0.9
						c-0.8,0-1.5,0.7-1.5,1.5V40.8z"/>
				</g>
			</g>
			<g>
				<g>
					<path class="st7" d="M58,38.8v0.9c0,5.3-4.1,9.6-9.2,9.9v1C54.5,50.3,59,45.6,59,39.7v-0.9H58z"/>
				</g>
				<ellipse class="st7" cx="46.3" cy="49.8" rx="3.1" ry="2.2"/>
			</g>
			<path class="st7" d="M40.2,14c-9.7,0-17.7,8.5-17.7,19c0,1.5,0.2,3.1,0.5,4.6l0.1,0.6l2.7-0.6l-0.1-0.6c-0.3-1.3-0.4-2.6-0.4-3.9
				c0-8.9,6.7-16.2,14.9-16.2c8.2,0,14.9,7.3,14.9,16.2c0,1.3-0.1,2.6-0.4,3.8l-0.1,0.6l2.7,0.6l0.1-0.6c0.3-1.4,0.5-2.9,0.5-4.4
				C57.8,22.5,49.9,14,40.2,14z"/>
		</g>
		<g>
			<polygon class="st3" points="37.2,66.3 30.1,61.2 30.1,56.2 40.2,59.1 			"/>
			<polygon class="st3" points="43.1,66.3 50.3,61.2 50.3,56.2 40.2,59.1 			"/>
		</g>
		<path class="st12" d="M40.6,16.5c-0.2,0-0.3,0-0.4,0c-0.2,0-0.3,0-0.4,0c-6.9,0-15.7,7.1-14.3,15.6c2-5.5,3.8-7.1,8.9-7.2
			c2.4,0,3.1,1.4,5.9,1.4v0c0,0,0,0,0,0c0,0,0,0,0,0v0c2.8,0,3.5-1.5,5.9-1.4c5.1,0.1,6.9,1.7,8.9,7.2
			C56.3,23.6,47.5,16.5,40.6,16.5z"/>
		<g>
			<rect x="31.3" y="37" class="st9" width="5.5" height="1.7"/>
			<rect x="43.5" y="37" class="st9" width="5.5" height="1.7"/>
		</g>
		<g>
			<path class="st9" d="M42.4,47.8c-0.3,1-1.2,1.8-2.2,1.8c-1.1,0-2-0.7-2.2-1.8h-1.2c0.3,1.7,1.7,2.9,3.4,2.9
				c1.7,0,3.1-1.3,3.4-2.9H42.4z"/>
		</g>
	</g>
</g>
</svg>
